<svg width="24" height="24" viewBox="0 0 24 24" fill="none" xmlns="http://www.w3.org/2000/svg">
<path d="M23.9674 18.7102V5.25714C23.9674 2.35102 21.6163 0 18.7102 0H5.25714C2.35102 0 0 2.35102 0 5.25714V18.7429C0 21.649 2.35102 24 5.25714 24H18.7429C21.6163 23.9673 23.9674 21.6163 23.9674 18.7102ZM1.92653 18.7102V5.25714C1.92653 3.42857 3.39592 1.95918 5.22449 1.95918H18.7102C20.5388 1.95918 22.0082 3.42857 22.0082 5.25714V18.7429C22.0082 20.5714 20.5388 22.0408 18.7102 22.0408H5.25714C3.42857 22.0408 1.92653 20.5388 1.92653 18.7102ZM9.89388 15.8041L8.45714 17.2408L9.89388 18.6776L8.52245 20.049L7.08571 18.6122L5.64898 20.049L4.27755 18.6776L5.71429 17.2408L4.27755 15.8041L5.64898 14.4327L7.08571 15.8694L8.52245 14.4327L9.89388 15.8041ZM19.6571 19.6245H14.5306V17.698H19.6571V19.6245ZM14.5306 14.8898H19.6571V16.8163H14.5306V14.8898ZM19.2 8.22857H14.0735V6.30204H19.2V8.22857ZM8.03265 6.26939H10.0571V8.19592H8.03265V10.2204H6.10612V8.19592H4.08163V6.26939H6.10612V4.2449H8.03265V6.26939Z" fill="white"/>
</svg>
