<svg width="22" height="20" viewBox="0 0 22 20" fill="none" xmlns="http://www.w3.org/2000/svg">
<path d="M18.7 0H3.3C2.42479 0 1.58542 0.347677 0.966548 0.966547C0.347678 1.58542 0 2.42479 0 3.3V13.475C0 13.9084 0.085357 14.3375 0.251198 14.7379C0.417038 15.1382 0.660114 15.502 0.966548 15.8085C1.27298 16.1149 1.63677 16.358 2.03714 16.5238C2.43752 16.6896 2.86664 16.775 3.3 16.775H7.2655L9.9 19.1235C10.2025 19.3941 10.5941 19.5437 11 19.5437C11.4059 19.5437 11.7975 19.3941 12.1 19.1235L14.729 16.7722H18.7C19.5752 16.7722 20.4146 16.4246 21.0335 15.8057C21.6523 15.1868 22 14.3475 22 13.4722V3.29725C21.9993 2.42251 21.6513 1.58385 21.0325 0.965575C20.4137 0.3473 19.5747 -3.03728e-07 18.7 0ZM19.8 13.475C19.8 13.6195 19.7715 13.7625 19.7163 13.896C19.661 14.0294 19.58 14.1507 19.4778 14.2528C19.3757 14.355 19.2544 14.436 19.121 14.4913C18.9875 14.5465 18.8445 14.575 18.7 14.575H14.3C14.0298 14.5734 13.7684 14.6713 13.5658 14.85L11 17.16L8.426 14.8582C8.22334 14.6795 7.96197 14.5816 7.69175 14.5832H3.3C3.00826 14.5832 2.72847 14.4674 2.52218 14.2611C2.31589 14.0548 2.2 13.775 2.2 13.4832V3.30825C2.2 3.01651 2.31589 2.73672 2.52218 2.53043C2.72847 2.32414 3.00826 2.20825 3.3 2.20825H18.7C18.9917 2.20825 19.2715 2.32414 19.4778 2.53043C19.6841 2.73672 19.8 3.01651 19.8 3.30825V13.475Z" fill="white"/>
</svg>
