<svg width="8" height="16" viewBox="0 0 8 16" fill="none" xmlns="http://www.w3.org/2000/svg">
<path d="M4.95269 5.25331V3.87292C4.94965 3.71233 4.95937 3.55174 4.98175 3.39269C5.0032 3.27362 5.04761 3.15986 5.11252 3.05776C5.18871 2.94181 5.30699 2.86001 5.44237 2.82964C5.64097 2.78227 5.8449 2.76103 6.04901 2.76643H7.4294V0.0165482H5.22805C4.73265 -0.0312278 4.23273 0.0247208 3.76015 0.180829C3.28757 0.336937 2.85271 0.58978 2.48325 0.923246C1.87708 1.67631 1.57902 2.63122 1.6492 3.59539V5.25331H0V8.00827H1.64847V16H4.9556V8.00827H7.15696L7.44756 5.25403L4.95269 5.25331Z" fill="#1F2937"/>
</svg>
