<svg width="16" height="16" viewBox="0 0 16 16" fill="none" xmlns="http://www.w3.org/2000/svg">
<mask id="path-1-outside-1" maskUnits="userSpaceOnUse" x="-0.246094" y="0" width="16" height="16" fill="black">
<rect fill="white" x="-0.246094" width="16" height="16"/>
<path fill-rule="evenodd" clip-rule="evenodd" d="M3.58332 3.82941C4.75467 2.65806 6.34336 2 7.99991 2C9.65645 2 11.2451 2.65806 12.4165 3.82941C13.5878 5.00076 14.2459 6.58946 14.2459 8.246V9.24707H12.4959C11.9655 9.24707 11.4568 9.45779 11.0817 9.83286C10.7066 10.2079 10.4959 10.7166 10.4959 11.2471V13.4951C10.4959 14.0255 10.7066 14.5342 11.0817 14.9093C11.4568 15.2844 11.9655 15.4951 12.4959 15.4951H13.2459C13.7763 15.4951 14.285 15.2844 14.6601 14.9093C15.0352 14.5342 15.2459 14.0255 15.2459 13.4951V13.4949L15.2457 12.7601C15.2458 12.7554 15.2459 12.7507 15.2459 12.746V8.246C15.2459 6.32424 14.4825 4.48119 13.1236 3.1223C11.7647 1.76342 9.92167 1 7.99991 1C6.07815 1 4.2351 1.76342 2.87621 3.1223C1.51732 4.48119 0.753906 6.32424 0.753906 8.246V9.74707V12.746V13.4951C0.753906 14.0255 0.964619 14.5342 1.33969 14.9093C1.71477 15.2844 2.22347 15.4951 2.75391 15.4951H3.50391C4.03434 15.4951 4.54305 15.2844 4.91812 14.9093C5.29319 14.5342 5.50391 14.0255 5.50391 13.4951V11.2471C5.50391 10.7166 5.29319 10.2079 4.91812 9.83286C4.54305 9.45779 4.03434 9.24707 3.50391 9.24707H1.75391V8.246C1.75391 6.58946 2.41197 5.00076 3.58332 3.82941ZM1.75391 10.2471V12.746V13.4951C1.75391 13.7603 1.85926 14.0146 2.0468 14.2022C2.23433 14.3897 2.48869 14.4951 2.75391 14.4951H3.50391C3.76912 14.4951 4.02348 14.3897 4.21101 14.2022C4.39855 14.0146 4.50391 13.7603 4.50391 13.4951V11.2471C4.50391 10.9819 4.39855 10.7275 4.21101 10.54C4.02348 10.3524 3.76912 10.2471 3.50391 10.2471H1.75391ZM11.7888 10.54C11.9763 10.3524 12.2307 10.2471 12.4959 10.2471H14.245L14.2459 13.4951V13.4952C14.2459 13.7604 14.1405 14.0147 13.953 14.2022C13.7655 14.3897 13.5111 14.4951 13.2459 14.4951H12.4959C12.2307 14.4951 11.9763 14.3897 11.7888 14.2022C11.6013 14.0146 11.4959 13.7603 11.4959 13.4951V11.2471C11.4959 10.9819 11.6013 10.7275 11.7888 10.54Z"/>
</mask>
<path fill-rule="evenodd" clip-rule="evenodd" d="M3.58332 3.82941C4.75467 2.65806 6.34336 2 7.99991 2C9.65645 2 11.2451 2.65806 12.4165 3.82941C13.5878 5.00076 14.2459 6.58946 14.2459 8.246V9.24707H12.4959C11.9655 9.24707 11.4568 9.45779 11.0817 9.83286C10.7066 10.2079 10.4959 10.7166 10.4959 11.2471V13.4951C10.4959 14.0255 10.7066 14.5342 11.0817 14.9093C11.4568 15.2844 11.9655 15.4951 12.4959 15.4951H13.2459C13.7763 15.4951 14.285 15.2844 14.6601 14.9093C15.0352 14.5342 15.2459 14.0255 15.2459 13.4951V13.4949L15.2457 12.7601C15.2458 12.7554 15.2459 12.7507 15.2459 12.746V8.246C15.2459 6.32424 14.4825 4.48119 13.1236 3.1223C11.7647 1.76342 9.92167 1 7.99991 1C6.07815 1 4.2351 1.76342 2.87621 3.1223C1.51732 4.48119 0.753906 6.32424 0.753906 8.246V9.74707V12.746V13.4951C0.753906 14.0255 0.964619 14.5342 1.33969 14.9093C1.71477 15.2844 2.22347 15.4951 2.75391 15.4951H3.50391C4.03434 15.4951 4.54305 15.2844 4.91812 14.9093C5.29319 14.5342 5.50391 14.0255 5.50391 13.4951V11.2471C5.50391 10.7166 5.29319 10.2079 4.91812 9.83286C4.54305 9.45779 4.03434 9.24707 3.50391 9.24707H1.75391V8.246C1.75391 6.58946 2.41197 5.00076 3.58332 3.82941ZM1.75391 10.2471V12.746V13.4951C1.75391 13.7603 1.85926 14.0146 2.0468 14.2022C2.23433 14.3897 2.48869 14.4951 2.75391 14.4951H3.50391C3.76912 14.4951 4.02348 14.3897 4.21101 14.2022C4.39855 14.0146 4.50391 13.7603 4.50391 13.4951V11.2471C4.50391 10.9819 4.39855 10.7275 4.21101 10.54C4.02348 10.3524 3.76912 10.2471 3.50391 10.2471H1.75391ZM11.7888 10.54C11.9763 10.3524 12.2307 10.2471 12.4959 10.2471H14.245L14.2459 13.4951V13.4952C14.2459 13.7604 14.1405 14.0147 13.953 14.2022C13.7655 14.3897 13.5111 14.4951 13.2459 14.4951H12.4959C12.2307 14.4951 11.9763 14.3897 11.7888 14.2022C11.6013 14.0146 11.4959 13.7603 11.4959 13.4951V11.2471C11.4959 10.9819 11.6013 10.7275 11.7888 10.54Z" fill="#6B7280"/>
<path d="M3.58332 3.82941L3.37119 3.61728L3.37119 3.61728L3.58332 3.82941ZM12.4165 3.82941L12.2044 4.04154L12.2044 4.04154L12.4165 3.82941ZM14.2459 9.24707V9.54707C14.4116 9.54707 14.5459 9.41276 14.5459 9.24707H14.2459ZM11.0817 9.83286L10.8696 9.62072L10.8696 9.62073L11.0817 9.83286ZM11.0817 14.9093L10.8696 15.1214L10.8696 15.1214L11.0817 14.9093ZM14.6601 14.9093L14.8723 15.1214L14.8723 15.1214L14.6601 14.9093ZM15.2459 13.4949L15.5459 13.4949L15.5459 13.4949L15.2459 13.4949ZM15.2457 12.7601L14.9457 12.7518L14.9457 12.7602L15.2457 12.7601ZM13.1236 3.1223L13.3357 2.91017L13.3357 2.91017L13.1236 3.1223ZM2.87621 3.1223L3.08834 3.33444L3.08834 3.33444L2.87621 3.1223ZM1.33969 14.9093L1.12756 15.1214L1.12756 15.1214L1.33969 14.9093ZM4.91812 14.9093L5.13025 15.1214L5.13025 15.1214L4.91812 14.9093ZM4.91812 9.83286L5.13025 9.62073L5.13025 9.62072L4.91812 9.83286ZM1.75391 9.24707H1.45391C1.45391 9.41276 1.58822 9.54707 1.75391 9.54707V9.24707ZM1.75391 10.2471V9.94707C1.58822 9.94707 1.45391 10.0814 1.45391 10.2471H1.75391ZM2.0468 14.2022L2.25893 13.99L2.25893 13.99L2.0468 14.2022ZM4.21101 14.2022L3.99888 13.99L3.99888 13.99L4.21101 14.2022ZM4.21101 10.54L3.99888 10.7521L3.99888 10.7521L4.21101 10.54ZM11.7888 10.54L12.0009 10.7521L12.0009 10.7521L11.7888 10.54ZM14.245 10.2471L14.545 10.247C14.545 10.0813 14.4107 9.94707 14.245 9.94707V10.2471ZM14.2459 13.4951L14.5459 13.4951L14.5459 13.495L14.2459 13.4951ZM14.2459 13.4952L14.5459 13.4952V13.4952H14.2459ZM13.953 14.2022L13.7409 13.99L13.7409 13.99L13.953 14.2022ZM11.7888 14.2022L12.0009 13.99L12.0009 13.99L11.7888 14.2022ZM7.99991 1.7C6.2638 1.7 4.5988 2.38967 3.37119 3.61728L3.79545 4.04154C4.91054 2.92645 6.42293 2.3 7.99991 2.3V1.7ZM12.6286 3.61728C11.401 2.38967 9.73601 1.7 7.99991 1.7V2.3C9.57688 2.3 11.0893 2.92645 12.2044 4.04154L12.6286 3.61728ZM14.5459 8.246C14.5459 6.50989 13.8562 4.84489 12.6286 3.61728L12.2044 4.04154C13.3195 5.15663 13.9459 6.66902 13.9459 8.246H14.5459ZM14.5459 9.24707V8.246H13.9459V9.24707H14.5459ZM12.4959 9.54707H14.2459V8.94707H12.4959V9.54707ZM11.2938 10.045C11.6126 9.72618 12.045 9.54707 12.4959 9.54707V8.94707C11.8859 8.94707 11.3009 9.18939 10.8696 9.62072L11.2938 10.045ZM10.7959 11.2471C10.7959 10.7962 10.975 10.3638 11.2938 10.045L10.8696 9.62073C10.4382 10.0521 10.1959 10.6371 10.1959 11.2471H10.7959ZM10.7959 13.4951V11.2471H10.1959V13.4951H10.7959ZM11.2938 14.6972C10.975 14.3783 10.7959 13.9459 10.7959 13.4951H10.1959C10.1959 14.1051 10.4382 14.6901 10.8696 15.1214L11.2938 14.6972ZM12.4959 15.1951C12.045 15.1951 11.6126 15.016 11.2938 14.6972L10.8696 15.1214C11.3009 15.5528 11.8859 15.7951 12.4959 15.7951V15.1951ZM13.2459 15.1951H12.4959V15.7951H13.2459V15.1951ZM14.448 14.6972C14.1292 15.016 13.6968 15.1951 13.2459 15.1951V15.7951C13.8559 15.7951 14.4409 15.5528 14.8723 15.1214L14.448 14.6972ZM14.9459 13.4951C14.9459 13.9459 14.7668 14.3783 14.448 14.6972L14.8723 15.1214C15.3036 14.6901 15.5459 14.1051 15.5459 13.4951H14.9459ZM14.9459 13.4949V13.4951H15.5459V13.4949H14.9459ZM14.9457 12.7602L14.9459 13.495L15.5459 13.4949L15.5457 12.7601L14.9457 12.7602ZM14.9459 12.746C14.9459 12.748 14.9459 12.7499 14.9458 12.7518L15.5456 12.7685C15.5458 12.761 15.5459 12.7535 15.5459 12.746H14.9459ZM14.9459 8.246V12.746H15.5459V8.246H14.9459ZM12.9115 3.33444C14.2141 4.63706 14.9459 6.40381 14.9459 8.246H15.5459C15.5459 6.24468 14.7509 4.32532 13.3357 2.91017L12.9115 3.33444ZM7.99991 1.3C9.8421 1.3 11.6088 2.03181 12.9115 3.33444L13.3357 2.91017C11.9206 1.49502 10.0012 0.7 7.99991 0.7V1.3ZM3.08834 3.33444C4.39097 2.03181 6.15771 1.3 7.99991 1.3V0.7C5.99858 0.7 4.07923 1.49502 2.66408 2.91017L3.08834 3.33444ZM1.05391 8.246C1.05391 6.40381 1.78572 4.63706 3.08834 3.33444L2.66408 2.91017C1.24893 4.32532 0.453906 6.24468 0.453906 8.246H1.05391ZM1.05391 9.74707V8.246H0.453906V9.74707H1.05391ZM1.05391 12.746V9.74707H0.453906V12.746H1.05391ZM1.05391 13.4951V12.746H0.453906V13.4951H1.05391ZM1.55182 14.6972C1.23301 14.3783 1.05391 13.9459 1.05391 13.4951H0.453906C0.453906 14.1051 0.696226 14.6901 1.12756 15.1214L1.55182 14.6972ZM2.75391 15.1951C2.30304 15.1951 1.87064 15.016 1.55182 14.6972L1.12756 15.1214C1.5589 15.5528 2.14391 15.7951 2.75391 15.7951V15.1951ZM3.50391 15.1951H2.75391V15.7951H3.50391V15.1951ZM4.70599 14.6972C4.38718 15.016 3.95477 15.1951 3.50391 15.1951V15.7951C4.1139 15.7951 4.69892 15.5528 5.13025 15.1214L4.70599 14.6972ZM5.20391 13.4951C5.20391 13.9459 5.0248 14.3783 4.70599 14.6972L5.13025 15.1214C5.56159 14.6901 5.80391 14.1051 5.80391 13.4951H5.20391ZM5.20391 11.2471V13.4951H5.80391V11.2471H5.20391ZM4.70599 10.045C5.0248 10.3638 5.20391 10.7962 5.20391 11.2471H5.80391C5.80391 10.6371 5.56159 10.0521 5.13025 9.62073L4.70599 10.045ZM3.50391 9.54707C3.95477 9.54707 4.38718 9.72618 4.70599 10.045L5.13025 9.62072C4.69892 9.18939 4.11391 8.94707 3.50391 8.94707V9.54707ZM1.75391 9.54707H3.50391V8.94707H1.75391V9.54707ZM1.45391 8.246V9.24707H2.05391V8.246H1.45391ZM3.37119 3.61728C2.14357 4.84489 1.45391 6.50989 1.45391 8.246H2.05391C2.05391 6.66902 2.68036 5.15663 3.79545 4.04154L3.37119 3.61728ZM1.45391 10.2471V12.746H2.05391V10.2471H1.45391ZM1.45391 12.746V13.4951H2.05391V12.746H1.45391ZM1.45391 13.4951C1.45391 13.8399 1.59087 14.1705 1.83467 14.4143L2.25893 13.99C2.12766 13.8588 2.05391 13.6807 2.05391 13.4951H1.45391ZM1.83467 14.4143C2.07846 14.6581 2.40912 14.7951 2.75391 14.7951V14.1951C2.56825 14.1951 2.39021 14.1213 2.25893 13.99L1.83467 14.4143ZM2.75391 14.7951H3.50391V14.1951H2.75391V14.7951ZM3.50391 14.7951C3.84869 14.7951 4.17935 14.6581 4.42315 14.4143L3.99888 13.99C3.86761 14.1213 3.68956 14.1951 3.50391 14.1951V14.7951ZM4.42315 14.4143C4.66694 14.1705 4.80391 13.8399 4.80391 13.4951H4.20391C4.20391 13.6807 4.13016 13.8588 3.99888 13.99L4.42315 14.4143ZM4.80391 13.4951V11.2471H4.20391V13.4951H4.80391ZM4.80391 11.2471C4.80391 10.9023 4.66694 10.5716 4.42315 10.3278L3.99888 10.7521C4.13016 10.8834 4.20391 11.0614 4.20391 11.2471H4.80391ZM4.42315 10.3278C4.17935 10.084 3.84869 9.94707 3.50391 9.94707V10.5471C3.68956 10.5471 3.8676 10.6208 3.99888 10.7521L4.42315 10.3278ZM3.50391 9.94707H1.75391V10.5471H3.50391V9.94707ZM12.4959 9.94707C12.1511 9.94707 11.8205 10.084 11.5767 10.3278L12.0009 10.7521C12.1322 10.6208 12.3103 10.5471 12.4959 10.5471V9.94707ZM14.245 9.94707H12.4959V10.5471H14.245V9.94707ZM14.5459 13.495L14.545 10.247L13.945 10.2472L13.9459 13.4951L14.5459 13.495ZM14.5459 13.4952V13.4951H13.9459V13.4952H14.5459ZM14.1651 14.4143C14.4089 14.1705 14.5459 13.8399 14.5459 13.4952L13.9459 13.4951C13.9459 13.6808 13.8721 13.8588 13.7409 13.99L14.1651 14.4143ZM13.2459 14.7951C13.5907 14.7951 13.9213 14.6581 14.1651 14.4143L13.7409 13.99C13.6096 14.1213 13.4316 14.1951 13.2459 14.1951V14.7951ZM12.4959 14.7951H13.2459V14.1951H12.4959V14.7951ZM11.5767 14.4143C11.8205 14.6581 12.1511 14.7951 12.4959 14.7951V14.1951C12.3103 14.1951 12.1322 14.1213 12.0009 13.99L11.5767 14.4143ZM11.1959 13.4951C11.1959 13.8399 11.3329 14.1705 11.5767 14.4143L12.0009 13.99C11.8697 13.8588 11.7959 13.6807 11.7959 13.4951H11.1959ZM11.1959 11.2471V13.4951H11.7959V11.2471H11.1959ZM11.5767 10.3278C11.3329 10.5716 11.1959 10.9023 11.1959 11.2471H11.7959C11.7959 11.0614 11.8697 10.8834 12.0009 10.7521L11.5767 10.3278Z" fill="#6B7280" mask="url(#path-1-outside-1)"/>
</svg>
