<svg width="24" height="24" viewBox="0 0 24 24" fill="none" xmlns="http://www.w3.org/2000/svg">
<path d="M16.24 0C11.9547 0 8.47997 3.47476 8.47997 7.76001C8.47997 9.51895 9.09215 11.2262 10.2044 12.5971L8.91108 13.8732L7.79881 12.7523C7.46255 12.416 6.91935 12.416 6.58308 12.7437C6.58308 12.7437 6.58308 12.7437 6.57446 12.7523L0.970002 18.3567C-0.323334 19.6501 -0.323334 21.7367 0.970002 23.03C2.26334 24.3233 4.34992 24.3233 5.64326 23.03L11.2477 17.4255C11.584 17.0893 11.584 16.5461 11.2563 16.2098C11.2563 16.2098 11.2563 16.2098 11.2477 16.2012L10.1268 15.0889L11.4029 13.7956C12.7738 14.9079 14.481 15.52 16.24 15.52C20.5252 15.52 24 12.0453 24 7.76001C24 3.47476 20.5252 0 16.24 0ZM4.4189 21.8056C3.80672 22.4178 2.80654 22.4178 2.19436 21.8056C1.58218 21.1935 1.58218 20.1933 2.19436 19.5811L7.18664 14.5802L9.4198 16.8134L4.4189 21.8056ZM16.24 13.7956C12.9032 13.7956 10.2044 11.0968 10.2044 7.76001C10.2044 4.42321 12.9032 1.72445 16.24 1.72445C19.5768 1.72445 22.2756 4.42321 22.2756 7.76001C22.2756 11.0968 19.5768 13.7956 16.24 13.7956ZM15.3778 6.2425C15.3778 6.3201 15.4209 6.38908 15.4899 6.42357L17.7575 7.55308C18.7146 8.00144 19.1284 9.1482 18.6801 10.1139C18.3869 10.7347 17.7834 11.1572 17.1022 11.2089V12.0711C17.1022 12.5454 16.7142 12.9334 16.24 12.9334C15.7658 12.9334 15.3778 12.5454 15.3778 12.0711V11.2089C14.4293 11.2089 13.6533 10.4329 13.6533 9.48446C13.6533 9.01024 14.0413 8.62224 14.5155 8.62224C14.9898 8.62224 15.3778 9.01024 15.3778 9.48446H16.8953C17.0074 9.48446 17.1022 9.38962 17.0936 9.26891C17.0936 9.19131 17.0505 9.13095 16.9901 9.09646L14.7225 7.96695C13.7654 7.51859 13.3515 6.37183 13.7999 5.40614C14.093 4.78534 14.6966 4.36285 15.3778 4.31112V3.4489C15.3778 2.97467 15.7658 2.58667 16.24 2.58667C16.7142 2.58667 17.1022 2.97467 17.1022 3.4489V4.31112C18.0507 4.31112 18.8267 5.08712 18.8267 6.03557C18.8267 6.50979 18.4387 6.89779 17.9644 6.89779C17.4902 6.89779 17.1022 6.50979 17.1022 6.03557H15.5847C15.4726 6.03557 15.3778 6.13041 15.3778 6.2425Z" fill="white"/>
</svg>
