<svg width="16" height="17" viewBox="0 0 16 17" fill="none" xmlns="http://www.w3.org/2000/svg">
<path d="M16 9.94284V16.2168H12.5707V10.3652C12.5707 8.89435 12.0748 7.89112 10.8339 7.89112C10.4384 7.90097 10.0558 8.03463 9.74022 8.2733C9.4246 8.51196 9.19178 8.8436 9.07453 9.22153C8.98611 9.50859 8.94752 9.80869 8.96044 10.1088V16.2196H5.53023C5.53023 16.2196 5.57644 6.3052 5.53023 5.28217H8.95855V6.83132C8.95195 6.84264 8.94253 6.85584 8.93593 6.86621H8.95855V6.83132C9.25277 6.27076 9.69845 5.80406 10.2449 5.48434C10.7913 5.16462 11.4165 5.00473 12.0493 5.02288C14.3075 5.02005 16 6.58429 16 9.94284ZM1.94257 0.00296953C1.68856 -0.0114881 1.43431 0.0269573 1.19593 0.11587C0.957549 0.204782 0.740228 0.342225 0.557729 0.519495C0.37523 0.696765 0.231528 0.909999 0.135725 1.14569C0.0399211 1.38139 -0.00589708 1.63441 0.00117156 1.88873C-0.0078251 2.13986 0.0350712 2.39015 0.12718 2.62394C0.219288 2.85774 0.358629 3.07003 0.536493 3.24754C0.714358 3.42505 0.926923 3.56397 1.16091 3.65561C1.39489 3.74726 1.64526 3.78965 1.89637 3.78016H1.91899C2.17338 3.79438 2.42795 3.75559 2.66655 3.66622C2.90516 3.57686 3.12258 3.43888 3.30503 3.26103C3.48748 3.08319 3.63098 2.86937 3.72642 2.63313C3.82186 2.3969 3.86716 2.1434 3.85945 1.88873C3.86727 1.63632 3.8228 1.38501 3.72882 1.15061C3.63485 0.916209 3.4934 0.703781 3.31338 0.526677C3.13335 0.349573 2.91864 0.211622 2.68273 0.121495C2.44682 0.0313687 2.19482 -0.00898539 1.94257 0.00296953ZM0.204834 16.2196H3.6341V5.28217H0.204834V16.2196Z" fill="#1F2937"/>
</svg>
