<svg width="32" height="21" viewBox="0 0 32 21" fill="none" xmlns="http://www.w3.org/2000/svg">
<path fill-rule="evenodd" clip-rule="evenodd" d="M2 1.5C2 0.671573 2.67157 0 3.5 0H30.5C31.3284 0 32 0.671573 32 1.5C32 2.32843 31.3284 3 30.5 3H3.5C2.67157 3 2 2.32843 2 1.5ZM2 10.0017C2 9.17328 2.67157 8.50171 3.5 8.50171H30.5C31.3284 8.50171 32 9.17328 32 10.0017C32 10.8301 31.3284 11.5017 30.5 11.5017H3.5C2.67157 11.5017 2 10.8301 2 10.0017ZM2 17.0032C1.17157 17.0032 0.5 17.6748 0.5 18.5032C0.5 19.3316 1.17157 20.0032 2 20.0032H29C29.8284 20.0032 30.5 19.3316 30.5 18.5032C30.5 17.6748 29.8284 17.0032 29 17.0032H2Z" fill="#1F2937"/>
</svg>
