<svg width="31" height="21" viewBox="0 0 31 21" fill="none" xmlns="http://www.w3.org/2000/svg">
<path fill-rule="evenodd" clip-rule="evenodd" d="M0.5 1.5C0.5 0.671573 1.17157 0 2 0H29C29.8284 0 30.5 0.671573 30.5 1.5C30.5 2.32843 29.8284 3 29 3H2C1.17157 3 0.5 2.32843 0.5 1.5ZM0.5 10.0017C0.5 9.17328 1.17157 8.50171 2 8.50171H29C29.8284 8.50171 30.5 9.17328 30.5 10.0017C30.5 10.8301 29.8284 11.5017 29 11.5017H2C1.17157 11.5017 0.5 10.8301 0.5 10.0017ZM2 17.0032C1.17157 17.0032 0.5 17.6747 0.5 18.5032C0.5 19.3316 1.17157 20.0032 2 20.0032H29C29.8284 20.0032 30.5 19.3316 30.5 18.5032C30.5 17.6747 29.8284 17.0032 29 17.0032H2Z" fill="#1F2937"/>
</svg>
