<svg width="14" height="16" viewBox="0 0 14 16" fill="none" xmlns="http://www.w3.org/2000/svg">
<path d="M11.4959 1.64449C10.2528 0.555342 8.64699 -0.0291182 6.99458 0.00611817C6.0413 -0.0330488 5.08965 0.116134 4.19408 0.44513C3.29852 0.774126 2.47662 1.27648 1.7754 1.92345C1.2349 2.4276 0.800789 3.03484 0.498648 3.70939C0.196507 4.38394 0.0324471 5.11214 0.0161391 5.85108C-0.0545871 6.60148 0.108275 7.3554 0.482442 8.0097C0.856609 8.66399 1.4238 9.18669 2.10642 9.50628C2.19017 9.53961 2.27942 9.55696 2.36956 9.55742C2.50159 9.55911 2.63022 9.51557 2.73408 9.43404C2.83794 9.35251 2.91077 9.23789 2.94048 9.10924C2.98511 8.95117 3.08739 8.5597 3.1311 8.39047C3.17938 8.26466 3.18742 8.12696 3.15411 7.99639C3.1208 7.86581 3.04778 7.74879 2.94513 7.66148C2.56121 7.22391 2.36131 6.65486 2.38723 6.07332C2.39674 5.51992 2.51822 4.97418 2.74433 4.46899C2.97044 3.9638 3.2965 3.50963 3.70286 3.13385C4.10923 2.75808 4.58747 2.46847 5.10877 2.2825C5.63007 2.09653 6.18363 2.01804 6.73608 2.05176C8.97792 2.05176 10.3699 3.26613 10.3699 5.21972C10.3981 6.34245 10.1273 7.45248 9.58511 8.43604C9.40468 8.7985 9.1325 9.10742 8.79564 9.33205C8.45877 9.55668 8.06897 9.6892 7.66499 9.71642C7.47422 9.72167 7.28463 9.68491 7.10964 9.60875C6.93466 9.53259 6.77856 9.41888 6.6524 9.27568C6.54332 9.14268 6.46794 8.98533 6.43265 8.81698C6.39737 8.64863 6.40321 8.47425 6.44969 8.30865C6.54918 7.90603 6.68587 7.48481 6.82163 7.07847C7.07023 6.4361 7.22675 5.7618 7.28655 5.0756C7.30237 4.86691 7.27399 4.65723 7.20326 4.46026C7.13252 4.26329 7.02103 4.08346 6.87605 3.93252C6.73108 3.78158 6.55589 3.66292 6.36193 3.5843C6.16797 3.50569 5.95961 3.46887 5.75045 3.47628C5.44449 3.50818 5.14782 3.60009 4.8774 3.74675C4.60699 3.89341 4.36815 4.09194 4.17453 4.33099C3.98091 4.57003 3.83631 4.84491 3.74901 5.13988C3.66171 5.43486 3.63342 5.74415 3.66575 6.05007C3.66336 6.54425 3.76077 7.03383 3.95215 7.48946C3.80523 8.08363 2.92932 11.6133 2.76474 12.2791C2.67176 12.6677 2.09154 15.7371 3.04369 15.9817C4.11766 16.2606 5.07725 13.2675 5.17581 12.9299C5.25485 12.651 5.53194 11.6161 5.7021 10.9773C6.30611 11.4923 7.07392 11.7752 7.8677 11.7751C8.61178 11.7806 9.3474 11.6171 10.0191 11.2969C10.6908 10.9767 11.2809 10.5081 11.7451 9.92657C12.7334 8.62404 13.2477 7.02334 13.2031 5.38895C13.193 4.68068 13.0361 3.9822 12.7422 3.33768C12.4484 2.69316 12.024 2.11661 11.4959 1.64449Z" fill="#1F2937"/>
</svg>
