<svg width="18" height="15" viewBox="0 0 18 15" fill="none" xmlns="http://www.w3.org/2000/svg">
<path d="M18 1.73384C17.323 2.02901 16.6071 2.22518 15.8743 2.31629C16.6469 1.85776 17.2245 1.13162 17.4975 0.275574C16.7741 0.704423 15.9827 1.00638 15.1574 1.16839C14.6516 0.627854 13.9948 0.252017 13.2724 0.0897328C12.5501 -0.0725513 11.7957 -0.0137747 11.1072 0.258425C10.4187 0.530624 9.82805 1.00365 9.41199 1.61602C8.99593 2.22838 8.77372 2.95175 8.77425 3.69208C8.77116 3.97497 8.79968 4.25732 8.85927 4.53388C7.39131 4.46188 5.95506 4.0809 4.64442 3.41584C3.33377 2.75077 2.17824 1.81659 1.25334 0.674366C0.778537 1.4862 0.631529 2.44865 0.842337 3.36521C1.05314 4.28176 1.60587 5.08329 2.38764 5.6061C1.80339 5.59037 1.2315 5.43434 0.720204 5.15119V5.18946C0.721308 6.04151 1.01588 6.86718 1.55434 7.52753C2.09281 8.18787 2.8423 8.64258 3.6767 8.81514C3.36097 8.89839 3.03557 8.93928 2.70906 8.93673C2.47449 8.94095 2.24015 8.91985 2.01011 8.87381C2.2486 9.60613 2.70821 10.2465 3.32569 10.7069C3.94317 11.1672 4.68814 11.4248 5.45808 11.4443C4.15183 12.4658 2.54085 13.0199 0.882611 13.0182C0.587711 13.0214 0.292905 13.0058 0 12.9714C1.68718 14.0588 3.65324 14.6341 5.66045 14.6278C7.04225 14.6374 8.41218 14.3723 9.69068 13.848C10.9692 13.3237 12.1308 12.5506 13.1079 11.5736C14.0851 10.5966 14.8584 9.4351 15.3829 8.15669C15.9075 6.87828 16.1727 5.50838 16.1634 4.12658C16.1634 3.96332 16.1574 3.80602 16.1497 3.64957C16.8778 3.12879 17.5049 2.47959 18 1.73384Z" fill="#1F2937"/>
</svg>
