<svg width="21" height="24" viewBox="0 0 21 24" fill="none" xmlns="http://www.w3.org/2000/svg">
<path fill-rule="evenodd" clip-rule="evenodd" d="M12.7388 4.75186C12.7512 4.63346 12.7574 4.51297 12.7574 4.39403C12.7553 4.26408 12.7475 4.13228 12.7358 4.00179C12.6971 3.78994 12.639 3.58305 12.5633 3.38112C12.4677 3.17359 12.3521 2.97646 12.2188 2.7908C12.0763 2.61962 11.9185 2.46185 11.7474 2.31937C11.5617 2.18605 11.3646 2.07049 11.1571 1.9749C10.9495 1.89706 10.7368 1.83785 10.5188 1.79915C10.2687 1.77381 10.0187 1.77376 9.77029 1.799C9.55202 1.8377 9.339 1.89696 9.13122 1.9749C8.9237 2.07049 8.72656 2.18605 8.5409 2.31937C8.36973 2.46185 8.21196 2.61962 8.06948 2.79079C7.93616 2.97645 7.8206 3.17359 7.72501 3.38111C7.64707 3.58889 7.58781 3.80191 7.54911 4.02018C7.52393 4.26804 7.52392 4.51726 7.54909 4.76512C7.58615 4.97507 7.64186 5.18094 7.71706 5.38099C7.81018 5.58382 7.92275 5.7755 8.05268 5.9571C8.19161 6.12265 8.34388 6.27616 8.51058 6.41542C8.69737 6.54979 8.89633 6.66586 9.10539 6.76259C9.31832 6.84202 9.5366 6.902 9.75919 6.94152C10.0149 6.96764 10.273 6.96756 10.5287 6.9413C10.752 6.90182 10.9696 6.84201 11.1805 6.76286C11.3872 6.66784 11.5847 6.55382 11.7694 6.42079C11.9352 6.28319 12.0894 6.12998 12.228 5.96411C12.3582 5.78308 12.4711 5.59201 12.5646 5.38986C12.6421 5.18281 12.7008 4.96952 12.7388 4.75186ZM12.7443 4.71942C12.7492 4.68446 12.7543 4.6495 12.76 4.61455C12.7553 4.64961 12.7501 4.68457 12.7443 4.71942ZM11.2316 6.74325C11.2502 6.73565 11.2687 6.72818 11.2873 6.72089C11.2688 6.72849 11.2502 6.73594 11.2316 6.74325ZM9.81117 6.95036C9.83598 6.95394 9.86079 6.95768 9.88559 6.96169C9.86073 6.95816 9.83593 6.95439 9.81117 6.95036ZM8.41039 6.34068C8.4282 6.35404 8.4458 6.3674 8.4633 6.38082C8.44555 6.36761 8.42791 6.35423 8.41039 6.34068ZM7.73162 5.41903C7.7427 5.44574 7.75355 5.47245 7.76404 5.49916C7.75288 5.47256 7.74207 5.44585 7.73162 5.41903ZM7.52578 4.17097C7.53064 4.1342 7.53609 4.09758 7.5421 4.06111C7.53704 4.09773 7.53169 4.13435 7.52578 4.17097ZM8.02968 2.83946L7.9871 2.89348C8.00113 2.87533 8.01532 2.85733 8.02968 2.83946ZM9.24431 1.92522L9.19207 1.94757C9.20941 1.93998 9.22683 1.93253 9.24431 1.92522ZM9.07632 1.99597L9.0314 2.01393C9.04634 2.00785 9.06132 2.00186 9.07632 1.99597ZM10.3672 1.77567C10.404 1.78053 10.4406 1.78598 10.477 1.792C10.4404 1.78693 10.4038 1.78158 10.3672 1.77567ZM11.6987 2.27957L11.6447 2.23699C11.6628 2.25102 11.6808 2.26521 11.6987 2.27957ZM12.6129 3.4942L12.5906 3.44197C12.5982 3.45931 12.6056 3.47672 12.6129 3.4942ZM12.5422 3.32621L12.5242 3.28129C12.5303 3.29623 12.5363 3.31121 12.5422 3.32621ZM14.5315 4.36802C14.5215 3.4992 14.2605 2.60757 13.751 1.89734C13.201 1.13693 12.4811 0.57929 11.5991 0.252313C9.94389 -0.363621 7.92119 0.178806 6.80085 1.54501C6.47895 1.93789 6.24322 2.33838 6.04805 2.8073C5.87822 3.22299 5.79457 3.6615 5.75909 4.1076C5.68812 4.97701 5.91624 5.89457 6.37249 6.63978C6.81353 7.3571 7.47509 7.97557 8.25071 8.31522C8.48137 8.41661 8.71202 8.51293 8.95535 8.57883C9.20376 8.64727 9.45976 8.68275 9.71577 8.71317C10.1619 8.7664 10.6156 8.72584 11.0566 8.6422C12.7498 8.31775 14.1997 6.8679 14.4607 5.15444C14.4979 4.90687 14.5302 4.6593 14.5317 4.40937L14.5317 4.39403L14.5317 4.39386L14.5317 4.39149C14.5318 4.38366 14.5317 4.37584 14.5315 4.36802ZM17.2464 22.2232V21.9291V21.6275H17.1706C17.0077 21.6281 16.8447 21.6296 16.6819 21.6312C16.4718 21.6331 16.2619 21.6351 16.0525 21.6351H12.1364H7.61448H3.87578H3.03933V21.9291V22.231C3.22491 22.2306 3.41054 22.2289 3.5961 22.2271L3.59659 22.2271H3.59687H3.59715C3.80594 22.2251 4.01463 22.2232 4.22304 22.2232H8.12395H12.6459H16.3998H17.2464ZM19.0207 20.9153C19.019 20.8661 19.0144 20.8179 19.0069 20.7708C19.0314 20.6448 19.0508 20.518 19.0702 20.3914L19.0702 20.3913L19.0703 20.3911C19.0829 20.3088 19.0954 20.2266 19.1094 20.1447C19.1968 19.6227 19.2836 19.1008 19.3704 18.5788C19.4572 18.0565 19.5441 17.5341 19.6315 17.0118L19.6945 16.6343C19.8408 15.7569 19.9868 14.881 20.1309 14.0031C20.1437 13.9283 20.156 13.8536 20.1683 13.7791L20.1684 13.7785C20.1827 13.6916 20.197 13.6049 20.212 13.519C20.2155 13.4983 20.2186 13.4777 20.2214 13.4573C20.2339 13.4014 20.2419 13.3433 20.2449 13.2832C20.2754 12.6901 19.7608 12.2136 19.188 12.2009H19.1677C19.1388 12.1992 19.1099 12.1998 19.0817 12.2004C19.0729 12.2006 19.0641 12.2007 19.0554 12.2008C19.0506 12.2009 19.0457 12.2009 19.041 12.2009H18.4707H16.4392C16.3488 11.8306 16.1856 11.4617 15.9613 11.1541C15.6622 10.746 15.3023 10.3911 14.8511 10.1478C14.5925 10.0084 14.3137 9.90955 14.0324 9.82844C13.8385 9.77267 13.6452 9.71754 13.4519 9.6624C13.2586 9.60728 13.0654 9.55215 12.8715 9.49639C12.7943 9.47424 12.7173 9.45148 12.6403 9.42873C12.2417 9.31094 11.8435 9.19327 11.4292 9.15928C11.1735 9.13796 10.914 9.14279 10.6559 9.14758C10.5458 9.14963 10.4359 9.15167 10.3266 9.15167H9.0542C8.58867 9.15167 8.15666 9.2774 7.71817 9.40501C7.6744 9.41775 7.63055 9.43051 7.58661 9.44316L6.55245 9.73973C6.5026 9.75409 6.45275 9.76817 6.4029 9.78225C6.3032 9.81041 6.2035 9.83858 6.1038 9.86899C5.61714 10.0109 5.19131 10.2543 4.8111 10.5863C4.48412 10.8702 4.21038 11.2453 4.03802 11.6458C3.95894 11.8323 3.89743 12.0144 3.84677 12.2009H3.15848H1.37404C1.33933 12.2009 1.3049 12.2006 1.27056 12.2004H1.2705H1.27048C1.20205 12.1998 1.13399 12.1992 1.06481 12.2009C0.826547 12.206 0.616166 12.2744 0.426063 12.4189C0.172592 12.6141 -0.00737196 12.9182 0.000232165 13.2503C0.00245085 13.3302 0.016322 13.412 0.029946 13.4923L0.0357181 13.5266L0.0661345 13.7167C0.213148 14.5962 0.360161 15.4783 0.504639 16.3578L0.504721 16.3583C0.689727 17.4735 0.874734 18.5886 1.06227 19.7037C1.08889 19.8671 1.11613 20.03 1.14338 20.1928L1.14339 20.1929C1.17064 20.3558 1.19788 20.5186 1.2245 20.6821L1.2245 20.6821C1.2321 20.7328 1.23971 20.7835 1.24984 20.8316C1.25318 20.8476 1.25693 20.8635 1.26107 20.8791C1.25865 20.911 1.25743 20.9434 1.25743 20.9761V22.0508C1.25743 22.1487 1.2563 22.2469 1.25518 22.3452C1.25293 22.5421 1.25067 22.7393 1.25743 22.9354C1.27771 23.5285 1.72382 23.9772 2.31947 23.9975H2.38284H3.2852H5.03668H7.34833H9.95148H12.5749H14.9449H16.7876H17.8319H17.8593C17.8941 24.0008 17.929 24.0009 17.9637 23.9975H17.9688C18.0684 23.9975 18.167 23.9786 18.2604 23.9443C18.4196 23.8992 18.5647 23.8244 18.6988 23.6984C18.9015 23.5057 18.9979 23.2472 19.0181 22.9734C19.0207 22.9405 19.0207 22.9101 19.0207 22.8797V22.4538V21.222C19.0207 21.1883 19.0209 21.1545 19.0212 21.1205V21.1202C19.0218 21.0518 19.0224 20.9829 19.0207 20.9153ZM5.93145 12.2009C5.93398 12.2009 5.93651 12.2009 5.93905 12.2009L6.06325 12.2009L8.72469 12.2009L9.55355 12.2009L11.9463 12.2009L13.1503 12.2009H14.526C14.5029 12.1635 14.4787 12.1267 14.4535 12.0904C14.3722 11.9965 14.2841 11.9093 14.1899 11.8283C14.0844 11.7554 13.9731 11.6908 13.8573 11.6345C13.7335 11.5907 13.6064 11.5549 13.4797 11.5192C13.4586 11.5133 13.4375 11.5073 13.4164 11.5013C13.2466 11.4532 13.0767 11.4044 12.9069 11.3556C12.7371 11.3068 12.5673 11.258 12.3975 11.2099C12.2991 11.1819 12.2 11.1515 12.1003 11.121C11.8805 11.0536 11.658 10.9853 11.435 10.9412C11.3219 10.9332 11.2086 10.9333 11.0941 10.9335C11.0774 10.9335 11.0607 10.9336 11.044 10.9336H9.73097C9.6422 10.9336 9.5527 10.9317 9.4629 10.9299C9.26169 10.9258 9.05902 10.9216 8.85992 10.938C8.7247 10.9656 8.59259 11.0048 8.46052 11.0439C8.41596 11.0572 8.37141 11.0704 8.32674 11.0831C8.02765 11.1668 7.72602 11.2529 7.42692 11.3391C7.32478 11.3683 7.22112 11.3958 7.11703 11.4234C6.88727 11.4842 6.65544 11.5457 6.43331 11.6273C6.31085 11.6861 6.194 11.7542 6.08198 11.8315C5.98793 11.9127 5.89999 12.0001 5.81876 12.0942C5.79465 12.1289 5.77145 12.1644 5.74917 12.2004C5.80997 12.2007 5.87073 12.2009 5.93145 12.2009ZM5.89089 11.9956C5.88122 12.0085 5.87155 12.0213 5.86185 12.034C5.8714 12.0211 5.88108 12.0083 5.89089 11.9956ZM6.5143 11.5901C6.51434 11.5901 6.51437 11.5901 6.51441 11.5901L6.51443 11.5901C6.51438 11.5901 6.51434 11.5901 6.5143 11.5901ZM6.36664 11.6526C6.34493 11.6615 6.32322 11.6702 6.30151 11.6788C6.3231 11.6698 6.34482 11.6611 6.36664 11.6526ZM11.305 10.9184C11.3149 10.9199 11.3248 10.9214 11.3347 10.923C11.3248 10.9215 11.3149 10.92 11.305 10.9184ZM14.2808 11.8942C14.2739 11.8891 14.2671 11.8839 14.2603 11.8788C14.2671 11.8839 14.274 11.889 14.2808 11.8942ZM17.4041 19.7713L17.3926 19.8507H16.4327H12.6712H8.14425H4.21292C4.03789 19.8507 3.86266 19.8518 3.68729 19.8532H3.15846C3.06918 19.8532 2.97962 19.8526 2.88997 19.8521H2.88969H2.88941L2.88821 19.8521C2.8782 19.7827 2.86811 19.7136 2.85685 19.6454C2.76053 19.0624 2.66421 18.4794 2.56536 17.8964C2.34877 16.5894 2.13219 15.2848 1.91312 13.9778H2.86445H4.81871H7.20387H9.80448H12.4431H14.9018H16.9777H18.3619L18.3257 14.195L18.3255 14.1963C18.2512 14.6426 18.1768 15.0892 18.1031 15.5366L17.7762 17.5044L17.4492 19.473C17.4327 19.5717 17.4184 19.6714 17.4041 19.7713Z" fill="white"/>
</svg>
