<svg width="20" height="20" viewBox="0 0 20 20" fill="none" xmlns="http://www.w3.org/2000/svg">
<path d="M3.121 15.804C3.12112 15.8039 3.12088 15.8041 3.121 15.804ZM3.121 15.804C5.21933 14.618 7.58971 13.9963 10 14C12.4999 14 14.8467 14.6549 16.8787 15.8038M3.121 15.804C3.28433 15.9976 3.45636 16.1843 3.63604 16.364C4.47177 17.1997 5.46392 17.8626 6.55585 18.3149C7.64778 18.7672 8.8181 19 10 19C11.1819 19 12.3522 18.7672 13.4442 18.3149C14.5361 17.8626 15.5282 17.1997 16.364 16.364C16.5436 16.1843 16.7153 15.9974 16.8787 15.8038M3.121 15.804C2.52465 15.0972 2.04014 14.3013 1.68508 13.4442C1.23279 12.3522 1 11.1819 1 10C1 7.61305 1.94821 5.32387 3.63604 3.63604C5.32387 1.94821 7.61305 1 10 1C12.3869 1 14.6761 1.94821 16.364 3.63604C18.0518 5.32387 19 7.61305 19 10C19 11.1819 18.7672 12.3522 18.3149 13.4442C17.9599 14.3013 17.475 15.097 16.8787 15.8038M16.8787 15.8038C16.8788 15.8039 16.8785 15.8037 16.8787 15.8038ZM13 8C13 8.79565 12.6839 9.55871 12.1213 10.1213C11.5587 10.6839 10.7956 11 10 11C9.20435 11 8.44129 10.6839 7.87868 10.1213C7.31607 9.55871 7 8.79565 7 8C7 7.20435 7.31607 6.44129 7.87868 5.87868C8.44129 5.31607 9.20435 5 10 5C10.7956 5 11.5587 5.31607 12.1213 5.87868C12.6839 6.44129 13 7.20435 13 8Z" stroke="#6B7280" stroke-width="1.8" stroke-linecap="round" stroke-linejoin="round"/>
</svg>
