<svg width="52" height="32" viewBox="0 0 52 32" fill="none" xmlns="http://www.w3.org/2000/svg">
<g clip-path="url(#clip0)">
<path d="M35.3544 15.9996C36.8983 15.9996 38.4076 15.5418 39.6913 14.684C40.975 13.8263 41.9755 12.6071 42.5664 11.1807C43.1572 9.75435 43.3118 8.1848 43.0106 6.67056C42.7094 5.15632 41.9659 3.7654 40.8742 2.67369C39.7825 1.58199 38.3916 0.838526 36.8773 0.537325C35.3631 0.236124 33.7935 0.390711 32.3672 0.981539C30.9408 1.57237 29.7216 2.5729 28.8639 3.85661C28.0061 5.14032 27.5483 6.64955 27.5483 8.19346C27.5544 10.2619 28.3788 12.2438 29.8414 13.7064C31.3041 15.1691 33.286 15.9935 35.3544 15.9996ZM35.3544 19.9026C30.1832 19.9026 19.7422 22.5367 19.7422 27.7088V31.6087H50.9636V27.7095C50.9636 22.5383 40.5265 19.9034 35.3544 19.9034V19.9026Z" stroke="#1F2937"/>
<path d="M15.9999 15.9996C17.5438 15.9996 19.0531 15.5418 20.3368 14.684C21.6205 13.8263 22.621 12.6071 23.2119 11.1807C23.8027 9.75435 23.9573 8.1848 23.6561 6.67056C23.3549 5.15632 22.6114 3.7654 21.5197 2.67369C20.428 1.58199 19.0371 0.838526 17.5228 0.537325C16.0086 0.236124 14.4391 0.390711 13.0127 0.981539C11.5863 1.57237 10.3671 2.5729 9.50939 3.85661C8.65164 5.14032 8.19382 6.64955 8.19382 8.19346C8.19995 10.2619 9.02435 12.2438 10.487 13.7064C11.9496 15.1691 13.9315 15.9935 15.9999 15.9996ZM15.9999 19.9026C10.8287 19.9026 0.387695 22.5367 0.387695 27.7088V31.6087H31.6091V27.7095C31.6091 22.5383 21.172 19.9034 15.9999 19.9034V19.9026Z" stroke="#1F2937"/>
</g>
<defs>
<clipPath id="clip0">
<rect width="51.3549" height="32" fill="white"/>
</clipPath>
</defs>
</svg>
