<svg width="28" height="24" viewBox="0 0 28 24" fill="none" xmlns="http://www.w3.org/2000/svg">
<path d="M27.4286 6V21.4286C27.4284 22.1105 27.1574 22.7644 26.6752 23.2466C26.193 23.7288 25.5391 23.9998 24.8571 24H2.57143C1.88951 23.9998 1.23557 23.7288 0.753377 23.2466C0.271184 22.7644 0.000201962 22.1105 0 21.4286L0 6C0.000201962 5.31808 0.271184 4.66414 0.753377 4.18195C1.23557 3.69976 1.88951 3.42877 2.57143 3.42857H7.28609L7.94514 1.66629C8.12866 1.17678 8.45722 0.754953 8.88691 0.457193C9.3166 0.159433 9.82694 -7.16472e-05 10.3497 2.42183e-07H17.0728C17.5957 -0.000226813 18.1062 0.159206 18.536 0.456976C18.9659 0.754746 19.2945 1.17666 19.4781 1.66629L20.1425 3.42857H24.8571C25.5391 3.42877 26.193 3.69976 26.6752 4.18195C27.1574 4.66414 27.4284 5.31808 27.4286 6ZM20.1432 13.7143C20.1432 12.4428 19.7662 11.1998 19.0598 10.1426C18.3533 9.08532 17.3493 8.2613 16.1745 7.77471C14.9998 7.28812 13.7072 7.1608 12.4601 7.40886C11.213 7.65693 10.0674 8.26923 9.16833 9.16833C8.26922 10.0674 7.65693 11.213 7.40886 12.4601C7.1608 13.7072 7.28812 14.9998 7.77471 16.1745C8.2613 17.3493 9.08531 18.3533 10.1425 19.0598C11.1998 19.7662 12.4428 20.1432 13.7143 20.1432C15.419 20.142 17.0535 19.4643 18.2589 18.2589C19.4643 17.0535 20.142 15.419 20.1432 13.7143ZM18.4289 13.7143C18.4291 14.6468 18.1527 15.5584 17.6348 16.3338C17.1168 17.1092 16.3805 17.7137 15.519 18.0706C14.6576 18.4276 13.7096 18.521 12.795 18.3392C11.8804 18.1574 11.0402 17.7084 10.3808 17.0491C9.72135 16.3898 9.27224 15.5497 9.09026 14.6351C8.90829 13.7205 9.00161 12.7725 9.35843 11.911C9.71525 11.0495 10.3195 10.3131 11.0949 9.795C11.8702 9.27691 12.7818 9.00038 13.7143 9.00038C14.9638 9.0028 16.1615 9.50019 17.0451 10.3837C17.9287 11.2672 18.4263 12.4648 18.4289 13.7143Z" fill="#F16AA0"/>
</svg>
