<svg width="70" height="70" viewBox="0 0 70 70" fill="none" xmlns="http://www.w3.org/2000/svg">
<circle cx="35" cy="35" r="35" fill="white"/>
<path fill-rule="evenodd" clip-rule="evenodd" d="M23 25.5571C23.8402 24.7169 24.7169 23.8402 25.5571 23C28.6986 26.1416 31.8402 29.2831 34.9817 32.4247C38.1233 29.2831 41.3014 26.1416 44.4429 23C45.2831 23.8402 46.1233 24.7169 47 25.5571C43.8584 28.6986 40.7169 31.8402 37.5388 34.9817C40.7169 38.1233 43.8584 41.3014 47 44.4429C46.1233 45.2831 45.2831 46.1233 44.4429 47C41.3014 43.8584 38.1233 40.7169 34.9817 37.5388C31.8402 40.7169 28.6986 43.8584 25.5571 47C24.7169 46.1233 23.8402 45.2831 23 44.4429C26.1416 41.3014 29.2831 38.1233 32.4247 34.9817C29.2831 31.8402 26.1416 28.6986 23 25.5571Z" fill="#1F2937"/>
</svg>
