<svg width="14" height="8" viewBox="0 0 14 8" fill="none" xmlns="http://www.w3.org/2000/svg">
<path d="M0.044036 1.21163C0.0158293 1.24004 0 1.27846 0 1.31849C0 1.35853 0.0158293 1.39694 0.044036 1.42535L6.55634 7.95748C6.58556 7.9848 6.62406 8 6.66406 8C6.70406 8 6.74257 7.9848 6.77178 7.95748L13.2841 1.42535C13.3123 1.39694 13.3281 1.35853 13.3281 1.31849C13.3281 1.27846 13.3123 1.24004 13.2841 1.21163L12.1216 0.0448112C12.0929 0.0163476 12.0543 0.000258689 12.0139 0C11.9735 0.000258689 11.9348 0.0163476 11.9061 0.0448112L7.01566 4.9508C6.92241 5.04405 6.79594 5.09644 6.66406 5.09644C6.53219 5.09644 6.40572 5.04405 6.31247 4.9508L1.42199 0.0448112C1.39287 0.0172971 1.35433 0.00196781 1.31427 0.00196781C1.27421 0.00196781 1.23567 0.0172971 1.20655 0.0448112L0.044036 1.21163Z" fill="#1F2937"/>
</svg>
