<svg width="68" height="47" viewBox="0 0 68 47" fill="none" xmlns="http://www.w3.org/2000/svg">
<g clip-path="url(#clip0)">
<path d="M52.588 0.499979H6.288C5.53536 0.490855 4.78837 0.631074 4.09027 0.912523C3.39217 1.19397 2.75681 1.61106 2.22096 2.13966C1.68511 2.66826 1.25939 3.29788 0.968458 3.99208C0.677521 4.68628 0.527135 5.43128 0.526 6.18398L0.5 40.29C0.503897 41.0441 0.657023 41.7901 0.950552 42.4848C1.24408 43.1795 1.67221 43.8092 2.21025 44.3377C2.74829 44.8661 3.38561 45.2829 4.08547 45.5639C4.78533 45.8449 5.53389 45.9846 6.288 45.975H52.588C53.342 45.9846 54.0905 45.8449 54.7903 45.564C55.4901 45.2831 56.1274 44.8664 56.6654 44.338C57.2034 43.8097 57.6316 43.18 57.9252 42.4855C58.2187 41.7909 58.372 41.0451 58.376 40.291V6.18398C58.372 5.4299 58.2187 4.68408 57.9252 3.9895C57.6316 3.29491 57.2034 2.66529 56.6654 2.13693C56.1274 1.60857 55.4901 1.19191 54.7903 0.910959C54.0905 0.630012 53.342 0.490336 52.588 0.499979ZM52.588 40.29H6.288V23.237H52.588V40.29ZM52.588 11.869H6.288V6.18398H52.588V11.869Z" stroke="#1F2937"/>
<path d="M66.2716 40.362L59.2616 33.352C59.1039 33.1948 58.9167 33.0705 58.7108 32.986C58.5048 32.9016 58.2842 32.8587 58.0616 32.86H56.9196C59.2092 29.9259 60.2936 26.229 59.9515 22.523C59.6093 18.8171 57.8665 15.3811 55.0784 12.9158C52.2903 10.4505 48.6669 9.14149 44.9469 9.25567C41.2269 9.36985 37.6905 10.8986 35.0589 13.5303C32.4272 16.162 30.8984 19.6983 30.7842 23.4183C30.67 27.1383 31.9791 30.7618 34.4444 33.5499C36.9097 36.338 40.3456 38.0808 44.0516 38.4229C47.7576 38.765 51.4545 37.6807 54.3886 35.391V36.535C54.3873 36.7576 54.4301 36.9783 54.5146 37.1842C54.599 37.3902 54.7234 37.5774 54.8806 37.735L61.8906 44.745C62.0468 44.9021 62.2325 45.0268 62.4371 45.1119C62.6417 45.1969 62.861 45.2407 63.0826 45.2407C63.3041 45.2407 63.5235 45.1969 63.7281 45.1119C63.9326 45.0268 64.1184 44.9021 64.2746 44.745L66.2646 42.755C66.5803 42.4377 66.7581 42.0086 66.7595 41.561C66.7608 41.1133 66.5854 40.6832 66.2716 40.364V40.362ZM45.3886 32.862C43.6085 32.862 41.8685 32.3342 40.3884 31.3452C38.9084 30.3563 37.7548 28.9507 37.0737 27.3062C36.3925 25.6616 36.2142 23.852 36.5615 22.1062C36.9088 20.3604 37.7659 18.7567 39.0246 17.4981C40.2833 16.2394 41.8869 15.3822 43.6328 15.0349C45.3786 14.6877 47.1882 14.8659 48.8327 15.5471C50.4773 16.2283 51.8829 17.3818 52.8718 18.8619C53.8607 20.3419 54.3886 22.082 54.3886 23.862C54.389 25.0439 54.1564 26.2143 53.7043 27.3063C53.2521 28.3983 52.5891 29.3905 51.7533 30.2261C50.9175 31.0618 49.9251 31.7245 48.833 32.1765C47.7409 32.6284 46.5705 32.8607 45.3886 32.86V32.862Z" fill="#1F2937" stroke="#1F2937"/>
</g>
<defs>
<clipPath id="clip0">
<rect width="67.392" height="46.474" fill="white"/>
</clipPath>
</defs>
</svg>
