<svg width="30" height="30" viewBox="0 0 30 30" fill="none" xmlns="http://www.w3.org/2000/svg">
<path d="M15 9.54545C11.9909 9.54545 9.54545 11.9909 9.54545 15C9.54545 18.0091 11.9909 20.4545 15 20.4545C18.0091 20.4545 20.4545 18.0091 20.4545 15C20.4545 11.9909 18.0091 9.54545 15 9.54545ZM27.1909 13.6364C26.5545 7.93636 22.0636 3.44545 16.3636 2.80909V0H13.6364V2.80909C7.93636 3.44545 3.44545 7.93636 2.80909 13.6364H0V16.3636H2.80909C3.44545 22.0636 7.93636 26.5545 13.6364 27.1909V30H16.3636V27.1909C22.0636 26.5545 26.5545 22.0636 27.1909 16.3636H30V13.6364H27.1909ZM15 24.5455C9.72727 24.5455 5.45455 20.2727 5.45455 15C5.45455 9.72727 9.72727 5.45455 15 5.45455C20.2727 5.45455 24.5455 9.72727 24.5455 15C24.5455 20.2636 20.2818 24.5455 15.0182 24.5455C15.0091 24.5455 15.0091 24.5455 15 24.5455Z" fill="#1F2937"/>
</svg>
