<svg width="24" height="24" viewBox="0 0 24 24" fill="none" xmlns="http://www.w3.org/2000/svg">
<path d="M10.8 15.6H13.2V18H10.8V15.6ZM10.8 6.00001H13.2V13.2H10.8V6.00001ZM11.988 1.35102e-05C9.61514 0.00238637 7.29625 0.70819 5.32443 2.02821C3.35262 3.34823 1.81642 5.2232 0.910011 7.41612C0.00359875 9.60904 -0.23233 12.0215 0.232047 14.3484C0.696424 16.6754 1.84026 18.8125 3.51897 20.4895C5.19767 22.1666 7.33589 23.3083 9.66333 23.7703C11.9908 24.2324 14.403 23.994 16.595 23.0854C18.787 22.1768 20.6604 20.6387 21.9785 18.6656C23.2965 16.6925 24 14.3729 24 12C24.0008 10.4229 23.6905 8.86115 23.087 7.4041C22.4835 5.94706 21.5985 4.62334 20.4828 3.50872C19.3671 2.39411 18.0425 1.51047 16.5848 0.908403C15.1272 0.306333 13.5651 -0.00235351 11.988 1.35102e-05ZM12 21.6C10.1013 21.6 8.24524 21.037 6.66653 19.9821C5.08782 18.9273 3.85736 17.4279 3.13076 15.6738C2.40416 13.9196 2.21405 11.9894 2.58447 10.1271C2.95488 8.26493 3.8692 6.55437 5.21178 5.21179C6.55436 3.8692 8.26492 2.95489 10.1271 2.58447C11.9894 2.21406 13.9196 2.40417 15.6738 3.13077C17.4279 3.85737 18.9273 5.08783 19.9821 6.66654C21.037 8.24525 21.6 10.1013 21.6 12C21.6 13.2607 21.3517 14.509 20.8692 15.6738C20.3868 16.8385 19.6797 17.8968 18.7882 18.7882C17.8968 19.6797 16.8385 20.3868 15.6738 20.8693C14.509 21.3517 13.2607 21.6 12 21.6Z" fill="#1F2937"/>
</svg>
