<svg width="25" height="25" viewBox="0 0 25 25" fill="none" xmlns="http://www.w3.org/2000/svg">
<path d="M21.4601 3.525C19.5905 1.65138 17.1538 0.448481 14.5295 0.103583C11.9051 -0.241315 9.2404 0.291139 6.95012 1.61805C4.65985 2.94496 2.87254 4.99187 1.86647 7.44011C0.860388 9.88835 0.691992 12.6005 1.38749 15.1544C2.083 17.7083 3.60337 19.9606 5.71192 21.5606C7.82046 23.1606 10.3989 24.0186 13.0457 24.001C15.6925 23.9834 18.2593 23.0912 20.3463 21.4632C22.4334 19.8352 23.9237 17.5629 24.5851 15H21.4651C20.915 16.5558 19.9478 17.9305 18.6691 18.9737C17.3904 20.0168 15.8496 20.6884 14.215 20.9148C12.5804 21.1413 10.915 20.914 9.40086 20.2578C7.88674 19.6016 6.58218 18.5417 5.62983 17.194C4.67747 15.8463 4.11398 14.2627 4.00096 12.6164C3.88793 10.9701 4.22973 9.32435 4.98898 7.85917C5.74823 6.394 6.8957 5.16577 8.30594 4.30878C9.71618 3.45179 11.3349 2.99903 12.9851 3C14.1647 3.00188 15.3321 3.23898 16.419 3.69743C17.5059 4.15588 18.4905 4.82648 19.3151 5.67L14.4851 10.5H24.9851V0L21.4601 3.525Z" fill="#1F2937"/>
</svg>
