<svg width="40" height="40" viewBox="0 0 40 40" fill="none" xmlns="http://www.w3.org/2000/svg">
<g clip-path="url(#clip0)">
<path d="M19.9992 19.9996C21.9369 19.9996 23.831 19.425 25.4421 18.3485C27.0532 17.272 28.3089 15.7419 29.0505 13.9518C29.792 12.1616 29.986 10.1918 29.608 8.29133C29.2299 6.3909 28.2969 4.64524 26.9267 3.27511C25.5566 1.90498 23.811 0.971909 21.9105 0.59389C20.0101 0.215872 18.0403 0.409885 16.2501 1.15139C14.4599 1.8929 12.9298 3.14861 11.8533 4.75971C10.7768 6.37082 10.2023 8.26496 10.2023 10.2026C10.2097 12.7986 11.2443 15.2862 13.08 17.1219C14.9157 18.9575 17.4032 19.9921 19.9992 19.9996V19.9996ZM19.9992 24.8981C13.509 24.8981 0.405273 28.2049 0.405273 34.6951V39.5903H39.5899V34.6959C39.5899 28.2057 26.4903 24.8989 19.9992 24.8989V24.8981Z" stroke="#1F2937"/>
</g>
<defs>
<clipPath id="clip0">
<rect width="40" height="40" fill="white"/>
</clipPath>
</defs>
</svg>
