<svg width="28" height="24" viewBox="0 0 28 24" fill="none" xmlns="http://www.w3.org/2000/svg">
<path fill-rule="evenodd" clip-rule="evenodd" d="M11.2442 15.7575C11.4834 15.9924 11.7943 16.1096 12.1055 16.1096C12.4165 16.1096 12.7277 15.9924 12.9669 15.7575L26.8804 2.10823C27.3657 1.63261 27.3733 0.853628 26.8974 0.368619C26.4215 -0.11639 25.6425 -0.123656 25.1578 0.351967L12.1055 13.1563L8.09557 9.22291C7.61087 8.74728 6.83158 8.75455 6.35596 9.23956C5.88034 9.72457 5.88791 10.5035 6.37291 10.9792L11.2442 15.7575ZM0 12.2962C0 18.7499 5.34146 24.0002 11.9069 24.0002C18.4724 24.0002 23.8139 18.7499 23.8136 12.2962C23.8136 11.6168 23.2629 11.0661 22.5835 11.0661C21.9041 11.0661 21.3534 11.6168 21.3534 12.2962C21.3534 17.3933 17.1158 21.5395 11.9069 21.5395C6.69809 21.5395 2.46047 17.3927 2.46047 12.2959C2.46047 7.19902 6.69809 3.05222 11.9069 3.05222C13.1858 3.05222 14.4252 3.29775 15.5914 3.78155C16.2199 4.04252 16.9387 3.74431 17.199 3.11671C17.4594 2.4891 17.1618 1.76946 16.5345 1.50909C15.0677 0.900563 13.5109 0.592058 11.9069 0.592058C5.34146 0.592058 0 5.84239 0 12.2962Z" fill="#10B981"/>
</svg>
