<svg width="35" height="40" viewBox="0 0 35 40" fill="none" xmlns="http://www.w3.org/2000/svg">
<path d="M34.3941 25.922C34.0147 24.2782 32.413 23.2244 30.7271 23.6038L24.5732 24.9104C24.1096 24.236 23.3509 23.8145 22.5079 23.7724L13.2771 23.2244C11.9705 23.1401 10.6638 23.5195 9.65226 24.3203L4.51001 28.1981L0.252898 32.4973C0.0842992 32.6659 0 32.9188 0 33.1717C0 33.4246 0.0842992 33.6775 0.295047 33.8461L6.32244 39.7471C6.49104 39.9157 6.74393 40 6.99683 40C7.24973 40 7.50263 39.9157 7.67123 39.7049L11.4225 35.9114L17.8293 36.628C19.9789 36.8809 22.1707 36.3751 23.9831 35.1528L33.1296 29.1675C34.1833 28.5353 34.7313 27.1865 34.3941 25.922ZM6.95468 37.766L2.27608 33.1717L5.0158 30.3898L9.69441 34.9842L6.95468 37.766ZM32.0337 27.6501L22.8872 33.6354C21.4541 34.5627 19.6839 34.9842 17.9557 34.8156L11.4225 34.0569L6.36459 29.1254L10.7481 25.8377C11.4225 25.3319 12.2655 25.079 13.1507 25.1211L22.3814 25.6691C22.8029 25.7112 23.1823 26.0484 23.1823 26.4699C23.2244 26.8914 22.9294 27.2708 22.5079 27.3972L20.274 27.9452C19.3888 28.1559 18.5037 28.2402 17.5764 28.1981L15.0053 28.0295C14.4995 27.9873 14.0358 28.4088 14.0358 28.9568C13.9937 29.4626 14.4152 29.9262 14.9631 29.9262L17.5764 30.0105C18.6301 30.0526 19.726 29.9684 20.7797 29.7155L23.0137 29.1675C24.1939 28.8725 25.0369 27.8609 25.1212 26.6807L31.1485 25.4162C31.7808 25.2897 32.413 25.6691 32.5816 26.3435C32.6659 26.8493 32.4973 27.3972 32.0337 27.6501Z" fill="#1F2937"/>
<path fill-rule="evenodd" clip-rule="evenodd" d="M33.6353 10.7903C33.6353 16.7334 28.7881 21.5806 22.845 21.5806C16.9019 21.5806 12.0547 16.7334 12.0547 10.7903C12.0547 4.8472 16.9019 0 22.845 0C28.7881 0 33.6353 4.8472 33.6353 10.7903ZM31.7385 10.7903C31.7385 5.90094 27.7343 1.89673 22.845 1.89673C17.9135 1.89673 13.9514 5.90094 13.9514 10.7903C13.9514 15.6796 17.9556 19.6839 22.845 19.6839C27.7343 19.6839 31.7385 15.6796 31.7385 10.7903ZM23.31 11.7598H22.467C20.9918 11.7598 19.643 10.6639 19.4744 9.23083C19.2637 7.587 20.4017 6.19606 21.9191 5.94317V4.72083C21.9191 4.55223 22.0455 4.42578 22.2141 4.42578H23.5629C23.7315 4.42578 23.858 4.55223 23.858 4.72083V5.90102C25.0381 6.06961 26.0076 6.99691 26.134 8.21924C26.134 8.38784 26.0076 8.55644 25.839 8.55644H24.4902C24.3637 8.55644 24.2795 8.47214 24.2373 8.34569C24.1109 8.05064 23.8158 7.79775 23.4786 7.79775H22.467C21.9191 7.79775 21.4133 8.17709 21.3711 8.72504C21.329 9.31513 21.7926 9.86308 22.4249 9.86308H23.3522C25.0803 9.86308 26.4712 11.3805 26.2605 13.1929C26.0919 14.4574 25.0803 15.4268 23.8158 15.6797V16.9021C23.8158 17.0707 23.6894 17.1971 23.5208 17.1971H22.172C22.0034 17.1971 21.8769 17.0707 21.8769 16.9021V15.7219C20.6967 15.5533 19.7273 14.626 19.6008 13.4036C19.6008 13.235 19.7273 13.0664 19.8959 13.0664H21.2447C21.3711 13.0664 21.4554 13.1507 21.4976 13.2772C21.624 13.5722 21.9191 13.8251 22.2563 13.8251H23.2679C23.8158 13.8251 24.3216 13.4458 24.3637 12.8978C24.4059 12.3078 23.9423 11.7598 23.31 11.7598Z" fill="#F16AA0"/>
</svg>
