<svg width="42" height="40" viewBox="0 0 42 40" fill="none" xmlns="http://www.w3.org/2000/svg">
<path d="M37.967 0H17.2893C15.222 0.0046352 13.5441 1.67794 13.5394 3.74988V7.80105H3.74988C1.68258 7.80105 0.0046352 9.47899 0 11.5509V28.9144C0 30.9585 1.64086 32.6226 3.68035 32.6643L3.26318 38.7642C3.22147 39.3992 3.70353 39.9508 4.34319 39.9972C4.67692 40.0204 5.00139 39.8998 5.24242 39.6634L12.274 32.6643H24.4275C26.4948 32.6597 28.1728 30.9863 28.1774 28.9144V24.8632H29.4475L36.4791 31.8624C36.9333 32.312 37.6657 32.312 38.1199 31.8578C38.3563 31.6214 38.4768 31.2923 38.4537 30.9585L38.0365 24.8586C40.0806 24.8215 41.7168 23.1528 41.7168 21.1087V3.74988C41.7168 1.67794 40.0389 0 37.967 0ZM25.8552 28.9098C25.8552 29.6978 25.2155 30.342 24.4229 30.342H11.792C11.486 30.342 11.1894 30.4626 10.9762 30.6804L5.78474 35.844L6.07675 31.5796C6.11847 30.94 5.63641 30.3884 5.00139 30.342C4.97357 30.342 4.9504 30.3374 4.92259 30.3374H3.74988C2.9619 30.3374 2.3176 29.6978 2.3176 28.9051V11.5509C2.3176 10.7629 2.95726 10.1187 3.74988 10.1187H13.5441V21.1134C13.5487 23.1807 15.222 24.8586 17.2939 24.8632H25.8598V28.9098H25.8552ZM39.3992 21.1087C39.3992 21.8967 38.7596 22.541 37.967 22.541H36.7943C36.1546 22.541 35.6355 23.0601 35.6355 23.6998C35.6355 23.7276 35.6355 23.7508 35.6401 23.7786L35.9321 28.043L30.7407 22.8794C30.5228 22.6615 30.2308 22.541 29.9249 22.541H17.2893C16.5013 22.541 15.8617 21.9013 15.857 21.1087V3.74988C15.8617 2.95726 16.5013 2.3176 17.2893 2.3176H37.967C38.7596 2.3176 39.3992 2.95726 39.3992 3.74988V21.1087ZM35.0421 9.14526C35.0421 9.78492 34.523 10.3041 33.8833 10.3041H21.3729C20.7333 10.3041 20.2141 9.78492 20.2141 9.14526C20.2141 8.5056 20.7333 7.98646 21.3729 7.98646H33.8833C34.523 7.98646 35.0421 8.5056 35.0421 9.14526ZM35.0421 15.7133C35.0421 16.353 34.523 16.8721 33.8833 16.8721H21.3729C20.7333 16.8721 20.2141 16.353 20.2141 15.7133C20.2141 15.0737 20.7333 14.5545 21.3729 14.5545H33.8833C34.523 14.5545 35.0421 15.0737 35.0421 15.7133Z" fill="black"/>
<path fill-rule="evenodd" clip-rule="evenodd" d="M13.5 10.1187H13.5441V21.1134C13.5487 23.1807 15.222 24.8586 17.2939 24.8632H25.8598V25H28.1774V24.8632H29.4475L36.4791 31.8624C36.9333 32.312 37.6657 32.312 38.1199 31.8578C38.3563 31.6214 38.4768 31.2923 38.4537 30.9585L38.0365 24.8586C39.8693 24.8254 41.3742 23.4804 41.6657 21.7292L41.7168 18.2547V3.74988C41.7168 1.67794 40.0389 0 37.967 0H17.2893C15.222 0.0046352 13.5441 1.67794 13.5394 3.74988V7.80105H13.5V10.1187ZM37.967 22.541C38.7596 22.541 39.3992 21.8967 39.3992 21.1087V3.74988C39.3992 2.95726 38.7596 2.3176 37.967 2.3176H17.2893C16.5013 2.3176 15.8617 2.95726 15.857 3.74988V21.1087C15.8617 21.9013 16.5013 22.541 17.2893 22.541H29.9249C30.2308 22.541 30.5228 22.6615 30.7407 22.8794L35.9321 28.043L35.6401 23.7786C35.6355 23.7508 35.6355 23.7276 35.6355 23.6998C35.6355 23.0601 36.1546 22.541 36.7943 22.541H37.967ZM33.8833 10.3041C34.523 10.3041 35.0421 9.78492 35.0421 9.14526C35.0421 8.5056 34.523 7.98646 33.8833 7.98646H21.3729C20.7333 7.98646 20.2141 8.5056 20.2141 9.14526C20.2141 9.78492 20.7333 10.3041 21.3729 10.3041H33.8833ZM33.8833 16.8721C34.523 16.8721 35.0421 16.353 35.0421 15.7133C35.0421 15.0737 34.523 14.5545 33.8833 14.5545H21.3729C20.7333 14.5545 20.2141 15.0737 20.2141 15.7133C20.2141 16.353 20.7333 16.8721 21.3729 16.8721H33.8833Z" fill="#F16AA0"/>
</svg>
