<svg width="6" height="10" viewBox="0 0 6 10" fill="none" xmlns="http://www.w3.org/2000/svg">
<path d="M3.99326 4.9977L0.209857 1.21726C0.143349 1.15113 0.0905706 1.0725 0.0545556 0.985902C0.0185407 0.8993 0 0.806433 0 0.712641C0 0.61885 0.0185407 0.525983 0.0545556 0.439381C0.0905706 0.35278 0.143349 0.274152 0.209857 0.208018C0.344591 0.0747484 0.526452 0 0.715962 0C0.905472 0 1.08733 0.0747484 1.22207 0.208018L5.5084 4.48969C5.63791 4.61971 5.71233 4.79463 5.71619 4.9781C5.72005 5.16156 5.65306 5.33946 5.52914 5.47481L1.22503 9.78993C1.15876 9.85639 1.08005 9.90915 0.993394 9.9452C0.906737 9.98124 0.813828 9.99986 0.719973 10C0.626118 10.0001 0.533156 9.98179 0.446392 9.946C0.359629 9.91021 0.280765 9.85768 0.214302 9.79141C0.14784 9.72514 0.0950804 9.64643 0.0590366 9.55978C0.0229928 9.47312 0.0043707 9.38021 0.00423311 9.28635C0.00395524 9.09681 0.0789862 8.91491 0.212821 8.78068L3.99326 4.9977Z" fill="#1F2937"/>
</svg>
